<?xml version="1.0" standalone="no"?>
<!DOCTYPE svg PUBLIC "-//W3C//DTD SVG 20010904//EN"
 "http://www.w3.org/TR/2001/REC-SVG-20010904/DTD/svg10.dtd">
<svg version="1.0" xmlns="http://www.w3.org/2000/svg"
 width="200.000000pt" height="200.000000pt" viewBox="0 0 200.000000 200.000000"
 preserveAspectRatio="xMidYMid meet">
<metadata>
Created by potrace 1.11, written by Peter Selinger 2001-2013
</metadata>
<g transform="translate(0.000000,200.000000) scale(0.100000,-0.100000)"
fill="#000000" stroke="none">
<path d="M274 1638 c11 -18 332 -599 462 -835 13 -24 20 -43 16 -43 -4 0 -2
-4 4 -8 23 -15 56 -93 45 -106 -8 -9 -7 -13 4 -13 8 0 11 5 8 10 -3 6 -1 7 5
3 6 -4 9 -13 6 -21 -4 -8 -10 -13 -14 -10 -5 3 -6 -4 -3 -15 3 -11 9 -22 13
-25 5 -3 6 3 3 14 -3 10 0 22 6 25 11 7 15 -6 12 -33 -2 -7 2 -11 7 -7 5 3 9
-1 9 -9 0 -8 -5 -11 -11 -7 -6 3 -18 7 -26 9 -8 1 -20 9 -26 18 -11 15 -56 67
-159 184 -23 25 -65 75 -95 111 -30 36 -72 85 -95 111 -22 25 -49 56 -60 70
-66 81 -118 139 -126 139 -4 0 -6 -26 -5 -57 2 -32 4 -117 5 -189 l1 -131 93
-60 c108 -71 142 -90 133 -74 -4 6 0 11 11 11 13 0 14 3 5 8 -9 6 -6 14 12 31
14 13 22 29 19 37 -4 10 0 12 11 8 10 -4 15 -13 12 -20 -3 -7 0 -11 7 -8 7 2
110 -94 231 -214 l218 -219 98 30 c88 27 96 31 93 52 -3 13 0 22 9 22 7 0 49
17 93 38 44 20 108 50 143 66 34 16 66 29 71 29 6 0 13 5 16 10 10 16 -72 92
-315 295 -124 102 -234 194 -245 203 -11 9 -42 35 -70 57 -27 22 -52 42 -55
45 -7 7 -67 58 -125 105 -43 35 -278 232 -343 286 -13 11 -27 17 -32 14 -6 -3
-7 1 -4 9 3 9 2 16 -3 16 -5 0 -23 13 -39 30 -34 35 -50 39 -30 8z m156 -168
c6 -11 8 -20 6 -20 -3 0 -10 9 -16 20 -6 11 -8 20 -6 20 3 0 10 -9 16 -20z"/>
<path d="M1538 1522 c-114 -75 -277 -182 -362 -237 -85 -55 -155 -103 -155
-106 -1 -3 101 -55 227 -114 125 -60 290 -139 367 -177 77 -37 141 -68 143
-68 1 0 2 61 2 136 0 128 1 136 20 141 18 5 20 11 15 52 -2 25 -9 132 -15 236
-11 212 -18 275 -28 275 -4 0 -100 -62 -214 -138z"/>
</g>
</svg>
